<svg width="28" height="28" viewBox="0 0 28 28" fill="none" xmlns="http://www.w3.org/2000/svg">
<path d="M14 26C14.2351 26.0015 14.4665 25.9417 14.6715 25.8265L14.6716 25.8266L14.6789 25.8223C16.7203 24.6288 18.6351 23.2309 20.3936 21.65L20.3938 21.6498C24.2601 18.1712 26.3125 14.6124 26.3125 11.0625C26.3125 9.5802 25.8461 8.13548 24.9794 6.93298C24.1127 5.73048 22.8896 4.83117 21.4834 4.36242C20.0771 3.89368 18.5591 3.87928 17.1442 4.32125C15.9304 4.7004 14.8454 5.39891 14 6.33847C13.1546 5.39891 12.0696 4.7004 10.8558 4.32125C9.44094 3.87928 7.92287 3.89368 6.51664 4.36242C5.11041 4.83117 3.88732 5.73048 3.0206 6.93298C2.15389 8.13548 1.6875 9.5802 1.6875 11.0625C1.6875 15.2167 4.55737 18.86 7.36546 21.445C10.1914 24.0464 13.073 25.6839 13.3289 25.8267C13.5338 25.9418 13.7651 26.0015 14 26ZM14 26C13.9983 26 13.9967 26 13.995 26L14 25.5L14.005 26C14.0033 26 14.0017 26 14 26Z" fill="#3C8B3F" stroke="#FAFFFE"/>
</svg>
