<svg width="30" height="30" viewBox="0 0 30 30" fill="none" xmlns="http://www.w3.org/2000/svg">
<circle cx="15" cy="15" r="14.5" stroke="#201E1F"/>
<g clip-path="url(#clip0_3_233)">
<path fill-rule="evenodd" clip-rule="evenodd" d="M11.6002 6.7999C12.48 6.7594 12.7605 6.7504 15.0015 6.7504C17.2425 6.7504 17.523 6.76015 18.402 6.7999C19.281 6.83965 19.881 6.9799 20.406 7.18315C20.9557 7.3909 21.4545 7.71565 21.867 8.13565C22.287 8.5474 22.611 9.0454 22.818 9.5959C23.022 10.1209 23.1615 10.7209 23.202 11.5984C23.2425 12.4796 23.2515 12.7601 23.2515 15.0004C23.2515 17.2414 23.2417 17.5219 23.202 18.4016C23.1622 19.2791 23.022 19.8791 22.818 20.4041C22.611 20.9547 22.2864 21.4535 21.867 21.8659C21.4545 22.2859 20.9557 22.6099 20.406 22.8169C19.881 23.0209 19.281 23.1604 18.4035 23.2009C17.523 23.2414 17.2425 23.2504 15.0015 23.2504C12.7605 23.2504 12.48 23.2406 11.6002 23.2009C10.7227 23.1611 10.1227 23.0209 9.59771 22.8169C9.04716 22.6099 8.54833 22.2853 8.13596 21.8659C7.71625 21.4539 7.39145 20.9553 7.18421 20.4049C6.98096 19.8799 6.84146 19.2799 6.80096 18.4024C6.76046 17.5211 6.75146 17.2406 6.75146 15.0004C6.75146 12.7594 6.76121 12.4789 6.80096 11.5999C6.84071 10.7209 6.98096 10.1209 7.18421 9.5959C7.39176 9.04546 7.7168 8.54688 8.13671 8.1349C8.5485 7.71527 9.04682 7.39048 9.59696 7.18315C10.122 6.9799 10.7227 6.8404 11.6002 6.7999ZM18.3352 8.2849C17.4652 8.24515 17.2042 8.2369 15.0015 8.2369C12.7987 8.2369 12.5377 8.24515 11.6677 8.2849C10.863 8.32165 10.4265 8.4559 10.1355 8.56915C9.75071 8.71915 9.47547 8.8969 9.18672 9.18565C8.913 9.45194 8.70235 9.77611 8.57021 10.1344C8.45696 10.4254 8.32271 10.8619 8.28596 11.6666C8.24621 12.5366 8.23796 12.7976 8.23796 15.0004C8.23796 17.2031 8.24621 17.4641 8.28596 18.3341C8.32271 19.1389 8.45696 19.5754 8.57021 19.8664C8.70221 20.2241 8.91297 20.5489 9.18672 20.8151C9.45297 21.0889 9.77771 21.2996 10.1355 21.4316C10.4265 21.5449 10.863 21.6791 11.6677 21.7159C12.5377 21.7556 12.798 21.7639 15.0015 21.7639C17.205 21.7639 17.4652 21.7556 18.3352 21.7159C19.14 21.6791 19.5765 21.5449 19.8675 21.4316C20.2522 21.2816 20.5275 21.1039 20.8162 20.8151C21.09 20.5489 21.3007 20.2241 21.4327 19.8664C21.546 19.5754 21.6802 19.1389 21.717 18.3341C21.7567 17.4641 21.765 17.2031 21.765 15.0004C21.765 12.7976 21.7567 12.5366 21.717 11.6666C21.6802 10.8619 21.546 10.4254 21.4327 10.1344C21.2827 9.74965 21.105 9.4744 20.8162 9.18565C20.5499 8.91195 20.2257 8.7013 19.8675 8.56915C19.5765 8.4559 19.14 8.32165 18.3352 8.2849ZM13.9477 17.5436C14.5362 17.7886 15.1915 17.8217 15.8017 17.6372C16.4118 17.4527 16.939 17.0621 17.2932 16.5321C17.6473 16.0021 17.8065 15.3656 17.7435 14.7312C17.6805 14.0969 17.3992 13.5041 16.9477 13.0541C16.6599 12.7665 16.3119 12.5463 15.9287 12.4093C15.5456 12.2723 15.1368 12.2219 14.7318 12.2619C14.3269 12.3018 13.9358 12.431 13.5868 12.6402C13.2378 12.8495 12.9395 13.1335 12.7134 13.4718C12.4874 13.8101 12.3391 14.1944 12.2794 14.5969C12.2196 14.9994 12.2498 15.4101 12.3679 15.7995C12.4859 16.189 12.6888 16.5474 12.962 16.8489C13.2352 17.1505 13.5718 17.3878 13.9477 17.5436ZM12.003 12.0019C12.3967 11.6081 12.8642 11.2958 13.3787 11.0827C13.8932 10.8696 14.4446 10.7599 15.0015 10.7599C15.5583 10.7599 16.1098 10.8696 16.6242 11.0827C17.1387 11.2958 17.6062 11.6081 18 12.0019C18.3937 12.3957 18.7061 12.8631 18.9192 13.3776C19.1323 13.8921 19.242 14.4435 19.242 15.0004C19.242 15.5573 19.1323 16.1087 18.9192 16.6232C18.7061 17.1377 18.3937 17.6051 18 17.9989C17.2047 18.7941 16.1261 19.2409 15.0015 19.2409C13.8768 19.2409 12.7982 18.7941 12.003 17.9989C11.2077 17.2036 10.7609 16.1251 10.7609 15.0004C10.7609 13.8757 11.2077 12.7971 12.003 12.0019ZM20.1825 11.3914C20.28 11.2993 20.3582 11.1887 20.4122 11.0659C20.4662 10.9431 20.4951 10.8107 20.497 10.6766C20.499 10.5425 20.474 10.4093 20.4236 10.285C20.3731 10.1607 20.2983 10.0478 20.2034 9.95293C20.1086 9.85807 19.9957 9.78321 19.8714 9.73279C19.7471 9.68236 19.6139 9.65738 19.4798 9.65933C19.3456 9.66129 19.2133 9.69014 19.0905 9.74417C18.9677 9.7982 18.857 9.87632 18.765 9.9739C18.5859 10.1637 18.4879 10.4157 18.4917 10.6766C18.4955 10.9375 18.6009 11.1866 18.7853 11.371C18.9698 11.5555 19.2189 11.6608 19.4798 11.6646C19.7406 11.6684 19.9927 11.5704 20.1825 11.3914Z" fill="#201E1F"/>
</g>
<defs>
<clipPath id="clip0_3_233">
<rect width="18" height="18" fill="white" transform="translate(6.00049 5.9993)"/>
</clipPath>
</defs>
</svg>
